<?xml version="1.0" encoding="iso-8859-1"?>
<!-- Generator: Adobe Illustrator 15.0.0, SVG Export Plug-In . SVG Version: 6.00 Build 0)  -->
<!DOCTYPE svg PUBLIC "-//W3C//DTD SVG 1.1//EN" "http://www.w3.org/Graphics/SVG/1.1/DTD/svg11.dtd">
<svg version="1.1" xmlns="http://www.w3.org/2000/svg" xmlns:xlink="http://www.w3.org/1999/xlink" x="0px" y="0px" width="580px"
	 height="260px" viewBox="0 0 580 260" style="enable-background:new 0 0 580 260;" xml:space="preserve">
<style type="text/css">
<![CDATA[
]]>
</style>
<g id="Layer_1">
	<g id="Layer_1_1_">
		<rect x="-2" y="-2" style="fill:#CDEA96;stroke:#231F20;stroke-miterlimit:10;" width="584.5" height="264.5"/>
	</g>
</g>
<g id="Layer_2_1_">
	<g>
		<path d="M218.171,162.557h-85.256c-1.386,0-2.508,1.122-2.508,2.508s1.122,2.508,2.508,2.508h85.256
			c1.386,0,2.508-1.122,2.508-2.508S219.558,162.557,218.171,162.557z"/>
		<path d="M135.423,155.034c0,1.387,1.122,2.508,2.508,2.508h75.226c1.386,0,2.507-1.121,2.507-2.508
			c0-1.386-1.122-2.507-2.507-2.507h-75.226C136.544,152.527,135.423,153.648,135.423,155.034z"/>
		<path d="M134.762,110.902l41.453-13.531c1.317-0.432,2.73,0.289,3.162,1.611c0.431,1.312-0.289,2.728-1.604,3.158l-10.755,3.512
			c-1.778,5.035-5.241,7.545-9.323,10.449c-6.526,4.631-13.86,8.843-14.541,26.396h-0.208c-1.386,0-2.508,1.121-2.508,2.507
			c0,1.387,1.122,2.508,2.508,2.508h65.196c0.232,0,0.44-0.049,0.656-0.11c0.23,0.071,0.463,0.145,0.7,0.145
			c0.661,0,1.322-0.255,1.814-0.773c0.955-1.004,0.918-2.581-0.083-3.531l-4.932-4.706l4.896-4.731
			c0.492-0.476,0.773-1.132,0.766-1.827c-0.007-0.686-0.296-1.342-0.798-1.812l-4.966-4.624l4.834-4.77
			c0.492-0.49,0.761-1.156,0.747-1.842c-0.017-0.692-0.316-1.347-0.828-1.807l-5.047-4.555l4.736-4.858
			c0.487-0.49,0.742-1.176,0.71-1.871c-0.034-0.695-0.355-1.345-0.884-1.793l-5.184-4.388l4.557-5.071
			c0.47-0.521,0.7-1.217,0.632-1.913c-0.066-0.705-0.424-1.337-0.984-1.753l-5.48-4.151l4.158-5.482
			c0.438-0.578,0.605-1.317,0.458-2.028c-0.147-0.71-0.595-1.317-1.225-1.67l-6.168-3.479l2.875-6.541
			c0.326-0.739,0.272-1.587-0.14-2.287c-0.412-0.692-1.131-1.149-1.937-1.218l-7.934-0.684l-5.945-9.321
			c-0.718-1.129-2.202-1.499-3.362-0.83l-8.37,4.812l-12.915-9.948c-0.729-0.562-1.704-0.677-2.552-0.302
			c-0.842,0.377-1.41,1.18-1.479,2.096l-1.033,13.625l-35.059,27.17c-3.228,2.49-3.959,7.249-1.626,10.608l4.087,5.867
			c1.697,2.443,4.812,3.918,7.826,3.918C134.037,111.074,134.392,110.952,134.762,110.902z"/>
	</g>
	<g>
		
			<line style="fill:none;stroke:#000000;stroke-width:4;stroke-linecap:round;stroke-linejoin:round;stroke-miterlimit:10;" x1="354.531" y1="168.254" x2="442.288" y2="168.254"/>
		
			<line style="fill:none;stroke:#000000;stroke-width:4;stroke-linecap:round;stroke-linejoin:round;stroke-miterlimit:10;" x1="359.693" y1="157.93" x2="437.126" y2="157.93"/>
		
			<line style="fill:none;stroke:#000000;stroke-width:4;stroke-linecap:round;stroke-linejoin:round;stroke-miterlimit:10;" x1="365.855" y1="147.605" x2="432.964" y2="147.605"/>
		<path style="fill:none;stroke:#000000;stroke-width:4;stroke-linecap:round;stroke-linejoin:round;stroke-miterlimit:10;" d="
			M398.729,94.234l-42.684,13.934c-2.697,0.893-6.236-0.297-7.854-2.626l-4.21-6.042c-1.623-2.339-1.114-5.669,1.13-7.4
			l37.002-28.677l1.149-15.169l14.659,11.297"/>
		<path style="fill:none;stroke:#000000;stroke-width:4;stroke-linecap:round;stroke-linejoin:round;stroke-miterlimit:10;" d="
			M392.396,96.554c0,27.85-25.982,15.587-25.982,49.466"/>
		
			<polyline style="fill:none;stroke:#000000;stroke-width:4;stroke-linecap:round;stroke-linejoin:round;stroke-miterlimit:10;" points="
			397.922,59.551 408.034,53.739 414.84,64.403 424.272,65.225 420.37,74.1 428.759,78.821 422.916,86.526 430.619,92.349 
			424.151,99.545 431.517,105.781 424.767,112.705 431.955,119.188 425.059,125.994 432.142,132.59 425.17,139.325 432.191,146.02 
					"/>
	</g>
	<text transform="matrix(1 0 0 1 137.0195 202.5)"><tspan x="0" y="0" style="font-family:'ArialRoundedMTBold'; font-size:17;">Sold Icon</tspan><tspan x="10.442" y="20.4" style="font-family:'ArialRoundedMTBold'; font-size:17;">120 PX</tspan></text>
	<text transform="matrix(1 0 0 1 360.1953 202.5)"><tspan x="0" y="0" style="font-family:'ArialRoundedMTBold'; font-size:17;">Line Icon</tspan><tspan x="7.521" y="20.4" style="font-family:'ArialRoundedMTBold'; font-size:17;">120 PX </tspan><tspan x="9.748" y="32.4" style="font-family:'ArialRoundedMTBold'; font-size:10;">Stroke 4 PX</tspan></text>
</g>
</svg>
